<?xml version="1.0" standalone="no"?>
<!DOCTYPE svg PUBLIC "-//W3C//DTD SVG 20010904//EN"
 "http://www.w3.org/TR/2001/REC-SVG-20010904/DTD/svg10.dtd">
<svg version="1.0" xmlns="http://www.w3.org/2000/svg"
 width="500.000000pt" height="500.000000pt" viewBox="0 0 500.000000 500.000000"
 preserveAspectRatio="xMidYMid meet">

<g transform="translate(0.000000,500.000000) scale(0.100000,-0.100000)"
fill="#000000" stroke="none">
<path d="M1763 3583 l-83 -4 0 -204 0 -204 553 -3 552 -3 54 -28 c194 -103
230 -324 75 -466 -84 -77 -107 -81 -426 -81 l-268 0 2 -582 3 -583 100 0 100
0 0 368 c0 202 0 367 1 367 0 0 47 -59 105 -131 57 -73 140 -175 184 -228 44
-53 91 -112 105 -131 13 -19 64 -83 113 -142 l89 -108 285 0 285 0 -38 48
c-83 102 -130 163 -164 208 -19 26 -55 71 -78 98 -24 28 -61 76 -82 106 -21
30 -46 64 -57 75 -10 11 -49 58 -85 105 -37 47 -79 100 -94 118 -15 18 -25 34
-23 36 2 1 25 10 50 20 131 48 284 180 357 308 54 95 75 189 76 333 0 195 -46
324 -169 467 -88 103 -196 175 -330 219 -69 23 -74 23 -590 24 -286 1 -557 0
-602 -2z"/>
<path d="M1680 2210 l0 -790 193 2 192 3 3 788 2 787 -195 0 -195 0 0 -790z"/>
<path d="M2220 2880 l0 -120 100 0 100 0 0 120 0 120 -100 0 -100 0 0 -120z"/>
<path d="M2245 1170 c-269 -11 -428 -34 -374 -55 88 -33 647 -52 1051 -36 272
10 434 24 446 36 47 47 -575 77 -1123 55z"/>
</g>
</svg>
